<?xml version="1.0" encoding="UTF-8"?>
<!-- Generator: Adobe Illustrator 16.0.0, SVG Export Plug-In . SVG Version: 6.00 Build 0)  -->
<svg xmlns="http://www.w3.org/2000/svg" xmlns:xlink="http://www.w3.org/1999/xlink" version="1.1" id="Layer_1" x="0px" y="0px" width="130px" height="80px" viewBox="0 0 130 80" xml:space="preserve">
<g>
	<path fill="#FFFFFF" d="M114.586,32.417v-6.64h-2.461v-0.882h5.914v0.882h-2.462v6.64H114.586z"></path>
	<path fill="#FFFFFF" d="M119.044,32.417v-7.522h1.481l1.765,5.325c0.163,0.497,0.282,0.867,0.356,1.114   c0.086-0.275,0.22-0.676,0.399-1.206l1.799-5.233h1.322v7.522h-0.95v-6.293l-2.18,6.293h-0.891l-2.155-6.408v6.408H119.044z"></path>
	<path fill="#FFFFFF" d="M103.906,72.189v-1.635c-0.546-0.007-1.092,0.041-1.627,0.146c-0.531,0.103-0.973,0.305-1.322,0.604   c-0.352,0.299-0.532,0.737-0.546,1.316c0.012,0.546,0.155,0.945,0.435,1.201c0.277,0.256,0.613,0.382,1.01,0.38   c0.576-0.011,1.06-0.203,1.446-0.574C103.689,73.256,103.891,72.775,103.906,72.189 M105.918,69.445v3.731   c-0.002,0.427,0.006,0.843,0.023,1.25c0.015,0.37,0.055,0.738,0.119,1.103h-1.869l-0.143-1.147   c-0.324,0.394-0.723,0.721-1.173,0.961c-0.466,0.248-1.009,0.376-1.628,0.384c-0.922-0.025-1.633-0.315-2.13-0.873   c-0.497-0.556-0.749-1.228-0.754-2.016c0.018-1.229,0.511-2.15,1.479-2.762c0.969-0.612,2.305-0.918,4.01-0.917   c0.009-0.302-0.016-0.604-0.074-0.9c-0.065-0.349-0.246-0.665-0.514-0.899c-0.281-0.26-0.746-0.396-1.393-0.409   c-0.436,0.001-0.869,0.064-1.287,0.187c-0.39,0.109-0.76,0.277-1.1,0.497l-0.428-1.383c0.354-0.229,0.803-0.423,1.352-0.58   c0.594-0.162,1.205-0.244,1.82-0.245c0.955,0.012,1.701,0.203,2.238,0.576c0.525,0.355,0.923,0.871,1.135,1.469   C105.826,68.104,105.933,68.773,105.918,69.445L105.918,69.445z M95.389,65.641h2.172l-2.369,6.856   c-0.564,1.61-1.088,2.91-1.57,3.901c-0.48,0.992-1.01,1.769-1.583,2.328c-0.454,0.407-0.886,0.709-1.294,0.906   s-0.737,0.319-0.987,0.368l-0.534-1.76c0.709-0.275,1.277-0.634,1.703-1.074c0.428-0.44,0.735-0.853,0.924-1.238   c0.188-0.384,0.281-0.631,0.277-0.739c0-0.061-0.006-0.121-0.02-0.182c-0.021-0.086-0.05-0.169-0.088-0.249l-3.367-9.118h2.264   l1.781,5.564c0.099,0.329,0.195,0.667,0.287,1.014l0.248,0.961l0.3-0.953l0.271-1.021L95.389,65.641z M85.17,72.189v-1.635   c-0.546-0.007-1.091,0.041-1.627,0.146c-0.531,0.103-0.973,0.305-1.322,0.604c-0.351,0.3-0.533,0.738-0.546,1.317   c0.013,0.546,0.157,0.945,0.435,1.201s0.615,0.382,1.01,0.38c0.578-0.011,1.061-0.203,1.447-0.574   C84.954,73.256,85.154,72.775,85.17,72.189z M87.182,69.445v3.731c-0.002,0.427,0.008,0.843,0.025,1.25   c0.018,0.406,0.057,0.774,0.118,1.103h-1.869l-0.142-1.147c-0.325,0.394-0.724,0.72-1.174,0.961   c-0.467,0.248-1.009,0.376-1.627,0.384c-0.924-0.025-1.634-0.315-2.131-0.873c-0.498-0.556-0.75-1.228-0.754-2.016   c0.018-1.229,0.512-2.15,1.48-2.762c0.97-0.612,2.305-0.918,4.009-0.917c0.009-0.302-0.017-0.604-0.074-0.9   c-0.065-0.349-0.245-0.665-0.513-0.899c-0.282-0.26-0.746-0.396-1.395-0.409c-0.436,0.001-0.869,0.064-1.287,0.187   c-0.39,0.109-0.76,0.277-1.1,0.497l-0.427-1.383c0.353-0.229,0.804-0.423,1.352-0.58c0.593-0.162,1.206-0.244,1.82-0.245   c0.955,0.012,1.7,0.203,2.239,0.576s0.916,0.863,1.135,1.469C87.085,68.075,87.189,68.734,87.182,69.445L87.182,69.445z    M75.585,61.134h2.065v14.394h-2.065V61.134z M70.962,72.189v-1.635c-0.546-0.008-1.092,0.041-1.628,0.146   c-0.531,0.103-0.973,0.305-1.322,0.604c-0.35,0.3-0.531,0.738-0.546,1.317c0.013,0.546,0.158,0.945,0.435,1.201   c0.277,0.256,0.615,0.382,1.011,0.38c0.575-0.011,1.06-0.203,1.446-0.574C70.745,73.256,70.945,72.775,70.962,72.189z    M72.975,69.445v3.731c-0.004,0.427,0.004,0.843,0.023,1.25c0.02,0.406,0.059,0.774,0.119,1.103h-1.87l-0.142-1.147   c-0.324,0.395-0.723,0.721-1.174,0.961c-0.466,0.248-1.008,0.376-1.627,0.384c-0.923-0.025-1.633-0.315-2.131-0.873   c-0.496-0.556-0.748-1.228-0.754-2.016c0.018-1.229,0.512-2.15,1.48-2.762c0.969-0.612,2.305-0.918,4.009-0.917   c0.009-0.302-0.017-0.604-0.074-0.9c-0.065-0.349-0.246-0.665-0.513-0.899c-0.281-0.26-0.746-0.396-1.393-0.409   c-0.437,0.001-0.869,0.064-1.287,0.187c-0.391,0.109-0.762,0.277-1.102,0.497l-0.427-1.383c0.353-0.229,0.804-0.423,1.351-0.58   c0.594-0.162,1.205-0.244,1.82-0.245c0.955,0.012,1.701,0.203,2.24,0.576c0.537,0.373,0.916,0.863,1.134,1.469   C72.876,68.075,72.98,68.734,72.975,69.445L72.975,69.445z M63.527,69.551v5.977h-2.029v-5.653   c0.003-0.837-0.138-1.501-0.424-1.993c-0.286-0.49-0.739-0.742-1.36-0.754c-0.492,0.006-0.929,0.21-1.308,0.609   c-0.38,0.4-0.579,0.964-0.599,1.688v6.103h-2.029v-5.959c0.003-0.707-0.133-1.286-0.408-1.739s-0.71-0.688-1.303-0.703   c-0.489,0.002-0.935,0.208-1.338,0.617c-0.404,0.409-0.618,1.005-0.642,1.79v5.994h-2.029V68.42c0-0.497-0.008-0.994-0.022-1.491   l-0.049-1.29h1.78l0.106,1.451c0.29-0.431,0.641-0.811,1.108-1.143c0.465-0.331,1.071-0.508,1.817-0.525   c0.628,0.008,1.166,0.17,1.614,0.489c0.448,0.319,0.777,0.761,0.986,1.321c0.362-0.554,0.773-0.991,1.269-1.314   c0.497-0.323,1.096-0.488,1.797-0.496c0.498-0.007,0.979,0.119,1.444,0.377c0.465,0.258,0.848,0.688,1.15,1.293   C63.361,67.697,63.517,68.518,63.527,69.551z M45.337,65.641h2.065v9.889h-2.065V65.641z M47.58,62.911   c-0.004,0.34-0.112,0.623-0.325,0.849c-0.213,0.227-0.508,0.344-0.886,0.354c-0.362-0.01-0.65-0.127-0.863-0.354   c-0.216-0.229-0.334-0.533-0.33-0.849c0.006-0.357,0.119-0.647,0.338-0.872c0.22-0.225,0.511-0.34,0.873-0.348   c0.362,0.008,0.649,0.123,0.863,0.348C47.465,62.262,47.575,62.554,47.58,62.911z M42.614,61.781v13.748h-2.065v-6.247h-5.563   v6.247h-2.065V61.781h2.065v5.672h5.563v-5.672H42.614z M20.541,69.57h4.314c0.009-0.411-0.048-0.822-0.171-1.215   c-0.115-0.392-0.335-0.744-0.637-1.018c-0.302-0.273-0.716-0.416-1.242-0.426c-0.502,0.012-0.916,0.156-1.237,0.434   c-0.322,0.278-0.565,0.62-0.73,1.025C20.679,68.754,20.579,69.158,20.541,69.57z M25.977,73.663l0.339,1.471   c-0.35,0.166-0.79,0.306-1.318,0.417c-0.593,0.118-1.196,0.177-1.8,0.176c-1.49-0.021-2.637-0.478-3.444-1.373   c-0.807-0.895-1.216-2.106-1.225-3.635c0.003-0.992,0.179-1.886,0.527-2.681c0.349-0.795,0.852-1.427,1.51-1.896   c0.658-0.468,1.451-0.707,2.381-0.719c0.917,0.014,1.661,0.244,2.23,0.691c0.573,0.452,1.006,1.058,1.247,1.746   c0.263,0.719,0.391,1.492,0.388,2.318c0,0.338-0.018,0.631-0.053,0.879h-6.238c0.051,1.104,0.359,1.894,0.927,2.371   c0.567,0.479,1.251,0.711,2.05,0.701c0.472,0.004,0.943-0.041,1.406-0.133C25.272,73.922,25.631,73.811,25.977,73.663z    M16.549,69.551v5.977h-2.065v-5.779c0.009-0.729-0.129-1.34-0.414-1.834c-0.286-0.493-0.771-0.75-1.458-0.77   c-0.533,0.004-1.01,0.207-1.433,0.608c-0.423,0.401-0.647,0.976-0.671,1.726v6.049H8.443V61.134h2.065v5.851   c0.366-0.512,0.783-0.899,1.284-1.164c0.483-0.258,1.021-0.395,1.569-0.396c0.519-0.004,1.03,0.127,1.484,0.377   c0.485,0.258,0.886,0.688,1.206,1.293C16.371,67.697,16.537,68.518,16.549,69.551z M2.254,65.641v-1.796l2.047-0.646v2.441h2.335   v1.56H4.301v5.01c-0.003,0.608,0.096,1.063,0.296,1.364c0.2,0.3,0.518,0.449,0.951,0.449c0.308,0.004,0.614-0.039,0.909-0.127   l0.071,1.597c-0.218,0.082-0.444,0.14-0.675,0.17c-0.308,0.044-0.618,0.064-0.929,0.063c-0.381,0.004-0.76-0.063-1.117-0.195   c-0.315-0.117-0.598-0.309-0.824-0.559c-0.248-0.265-0.432-0.613-0.551-1.045c-0.119-0.432-0.179-0.969-0.178-1.611V67.2h-1.39   v-1.56H2.254z M91.662,23.733c-1.872,0.042-3.383,0.834-4.53,2.377c-1.147,1.541-1.827,3.581-2.038,6.117   c0,0.091,0.039,0.201,0.116,0.331c0.077,0.13,0.192,0.202,0.349,0.215c1.1-0.001,2.539-0.025,4.314-0.072   c1.691-0.044,3.383-0.108,5.072-0.193c1.604-0.082,2.699-0.175,3.285-0.28c0.084-0.078,0.168-0.175,0.25-0.293   c0.085-0.12,0.132-0.262,0.136-0.409c-0.236-1.995-0.942-3.77-2.116-5.327C95.327,24.64,93.714,23.819,91.662,23.733z    M94.135,20.474c2.432,0.059,4.401,0.693,5.909,1.901s2.644,2.637,3.403,4.288c0.761,1.65,1.236,3.167,1.428,4.55   c0.034,0.124,0.141,0.266,0.318,0.429c0.18,0.162,0.459,0.305,0.841,0.429c-0.013,0.24-0.085,0.596-0.222,1.069   c-0.139,0.472-0.27,0.789-0.397,0.95c-1.127,0.264-2.856,0.515-5.185,0.753c-2.33,0.24-4.832,0.445-7.504,0.615   c-2.414,0.158-4.83,0.271-7.248,0.339c-0.156,0.047-0.283,0.162-0.347,0.312c-0.079,0.171-0.118,0.357-0.116,0.545   c0.086,1.648,0.418,3.163,0.996,4.548c0.577,1.384,1.354,2.569,2.327,3.554c1.073,1.128,2.287,1.969,3.642,2.521   c1.354,0.554,2.896,0.828,4.627,0.828c1.524,0.02,3.041-0.224,4.481-0.721c1.417-0.494,2.834-1.318,4.25-2.473   c0.048,0.042,0.108,0.113,0.185,0.214s0.117,0.21,0.125,0.331c0.056,0.35,0.021,0.779-0.105,1.295l-0.281,1.12   c-1.742,1.901-3.761,3.323-6.055,4.264c-2.295,0.941-4.371,1.41-6.23,1.408c-2.053-0.021-3.877-0.369-5.476-1.049   c-1.599-0.681-2.94-1.573-4.026-2.681c-1.596-1.627-2.779-3.612-3.453-5.789c-0.697-2.219-1.039-4.441-1.021-6.67   c0.045-3.393,0.707-6.291,1.986-8.695c1.281-2.404,2.906-4.253,4.882-5.548c1.293-0.831,2.693-1.48,4.163-1.93   C91.527,20.718,92.896,20.482,94.135,20.474L94.135,20.474z M76.977,47.482c-1.918,2.259-3.992,3.842-6.221,4.75   s-4.224,1.345-5.988,1.311c-2.469-0.014-4.642-0.492-6.52-1.438s-3.49-2.278-4.835-4c-0.939-1.277-1.684-2.832-2.237-4.664   c-0.559-1.872-0.845-3.816-0.849-5.771c0.003-2.939,0.672-5.607,2.006-8.001s3.316-4.398,5.943-6.014   c1.741-1.05,3.514-1.842,5.323-2.377c1.808-0.535,3.408-0.804,4.799-0.806c1.396,0,2.545,0.097,3.449,0.291   c0.891,0.191,1.756,0.483,2.578,0.873c0.549,0.209,1.066,0.493,1.536,0.845c0.438,0.335,0.776,0.752,1.015,1.252   c-0.007,0.198-0.023,0.396-0.049,0.592c-0.023,0.219-0.059,0.437-0.105,0.652c-0.307,0.631-0.737,1.296-1.295,1.995   c-0.557,0.699-1.027,1.15-1.41,1.353c-0.135,0.045-0.273,0.077-0.415,0.097c-0.153,0.022-0.272,0.016-0.356-0.019   c-0.769-0.823-1.919-1.709-3.449-2.657c-1.531-0.95-3.24-1.466-5.128-1.548c-2.914,0.104-5.027,1.198-6.337,3.279   c-1.31,2.082-1.954,4.518-1.932,7.31c-0.012,1.751,0.229,3.496,0.715,5.179c0.479,1.639,1.22,3.053,2.222,4.244   c1.117,1.389,2.399,2.389,3.844,2.997c1.446,0.61,3.076,0.909,4.887,0.896c1.358,0.02,2.776-0.252,4.261-0.817   c1.482-0.563,2.998-1.538,4.549-2.92c0.088,0.009,0.185,0.069,0.291,0.185c0.098,0.098,0.158,0.225,0.174,0.36   c-0.012,0.489-0.06,0.978-0.145,1.46C77.204,46.917,77.098,47.287,76.977,47.482L76.977,47.482z M24.26,13.179   c-0.574,1.681-1.159,3.357-1.756,5.029l-2.152,6.085c-0.622,1.756-1.225,3.519-1.808,5.288c-0.013,0.324,0.09,0.531,0.309,0.622   c0.426,0.037,1.215,0.058,2.366,0.063l3.814,0.005l2.926-0.005c0.98-0.005,1.705-0.026,2.173-0.063   c0.124-0.01,0.224-0.088,0.299-0.233c0.075-0.145,0.079-0.317,0.01-0.466l-1.897-5.531c-0.708-2.06-1.427-4.116-2.155-6.169   c-0.553-1.577-1.134-3.145-1.742-4.702c-0.045-0.036-0.11-0.042-0.194-0.02C24.382,13.098,24.315,13.132,24.26,13.179z    M0.232,50.361c2.65-0.269,4.549-0.84,5.694-1.713c1.146-0.873,2.31-2.769,3.494-5.686c0.97-2.306,2.09-5.087,3.361-8.343   c1.296-3.325,2.574-6.657,3.833-9.996c1.284-3.408,2.431-6.492,3.442-9.251c1.01-2.76,1.74-4.796,2.189-6.107   c0.319-0.876,0.609-1.732,0.87-2.569c0.26-0.837,0.435-1.538,0.521-2.102l0.907,0.034c1.197,0.044,2.396,0.044,3.593,0l0.83-0.034   l0.599,2.014c0.209,0.715,0.447,1.445,0.714,2.189c0.42,1.205,1.18,3.343,2.278,6.413l1.534,4.27   c3.325-0.632,7.085-3.841,11.688-6.375c0.521,0.759,1.607,0.947,3.259,0.562l7.532-7.113c0.269-0.188,0.524-0.171,0.765,0.054   c4.449,7.957,8.793,5.671,10.376,6.073c1.087,0.281,2.207,1.59,2.953,1.513c4.704-2.312,7.456-4.481,8.259-6.506   c3.129,0.6,6.453-1.862,9.97-7.385c0.517-0.8,1.598-0.434,1.846,0.352c0.459,1.156,1.016,1.844,1.671,2.063   c0.657-0.276,1.163-0.112,1.505,0.494c3.607,4.195,18.561,21.828,36.064,15.815c-17.504,6.024-32.455-9.651-36.064-13.846   c-0.344-0.605-0.848-0.77-1.505-0.494c-0.655-0.219-1.214-0.907-1.671-2.063c-0.248-0.785-1.329-1.152-1.846-0.351   c-3.517,5.522-6.841,7.984-9.97,7.385c-0.802,2.025-3.554,4.193-8.259,6.506c-0.746,0.077-1.867-1.232-2.953-1.512   c-1.584-0.403-5.928,1.885-10.376-6.073c-0.241-0.224-0.496-0.242-0.765-0.054l-7.532,7.113c-1.652,0.385-2.738,0.197-3.259-0.562   c-4.512,2.484-8.214,4.821-11.489,4.96l1.978,5.456c1.375,3.783,2.69,7.346,3.943,10.688c1.253,3.344,2.243,5.889,2.973,7.641   c0.731,1.758,1.398,3.062,2,3.912c0.578,0.83,1.404,1.454,2.361,1.783c0.972,0.338,2.377,0.62,4.216,0.848   c0.148,0.186,0.199,0.589,0.154,1.212c-0.045,0.622-0.148,1.045-0.309,1.269c-1.045-0.043-2.432-0.09-4.163-0.141   c-1.832-0.053-3.664-0.08-5.496-0.083c-2.129,0.004-4.189,0.032-6.183,0.083c-1.993,0.051-3.435,0.098-4.327,0.141   c-0.121-0.225-0.188-0.646-0.203-1.269c-0.014-0.622,0.053-1.026,0.203-1.212l2.357-0.399c0.643-0.101,1.276-0.253,1.893-0.458   c0.527-0.245,0.845-0.553,0.957-0.925c0.111-0.36,0.101-0.747-0.03-1.101c-0.511-1.754-1.209-3.873-2.096-6.355   c-0.763-2.15-1.559-4.29-2.386-6.416c-0.057-0.163-0.169-0.3-0.318-0.389c-0.16-0.101-0.285-0.153-0.377-0.156   c-0.998-0.044-1.996-0.065-2.994-0.063l-4.502-0.004c-1.567-0.003-3.135-0.002-4.703,0.004c-0.762,0.006-1.306,0.027-1.632,0.063   c-0.166,0.02-0.337,0.117-0.512,0.292c-0.176,0.175-0.288,0.311-0.339,0.409c-0.887,2.319-1.737,4.653-2.549,7   c-0.831,2.396-1.295,4.087-1.392,5.072c-0.079,0.692,0.024,1.254,0.31,1.684c0.287,0.43,1.007,0.777,2.163,1.042   c0.477,0.117,1.05,0.233,1.719,0.351l2.067,0.351c0.114,0.181,0.156,0.575,0.125,1.183c-0.031,0.607-0.124,1.04-0.28,1.299   c-0.811-0.01-2.125-0.047-3.94-0.111c-2.084-0.071-4.17-0.108-6.256-0.112c-2.256,0.009-4.057,0.046-5.406,0.112   c-1.029,0.054-2.058,0.091-3.088,0.111C0.078,52.623,0,52.21,0,51.602C0,50.994,0.078,50.582,0.232,50.361z"></path>
</g>
</svg>
