<svg xmlns="http://www.w3.org/2000/svg" viewBox="0 0 148 48" fill="none"><path opacity=".25" d="M.87 45.905c0 1.081 6.71 1.946 14.979 1.946s14.979-.865 14.979-1.946-6.71-1.946-14.979-1.946C7.58 43.995.87 44.86.87 45.905z" fill="url(#A)"/><path d="M0 31.78c0 5.549 4.497 10.017 10.083 10.017 5.186 0 9.43-3.891 10.01-8.864 1.197 2.738 3.953 4.648 7.145 4.648 4.28 0 7.762-3.459 7.762-7.711 0-3.495-2.358-6.486-5.585-7.422 1.487-1.658 2.394-3.855 2.394-6.27 0-5.225-4.28-9.476-9.539-9.476-.544 0-1.124.036-1.632.144A8.85 8.85 0 0 0 12.005 0c-4.86 0-8.813 3.927-8.813 8.792 0 1.693.471 3.243 1.306 4.576C1.922 14.052 0 16.358 0 19.133c0 2.306 1.306 4.288 3.228 5.297C1.233 26.267 0 28.898 0 31.78z" fill="#69a82f"/><use href="#D" fill="#94c122"/><use href="#D" fill="url(#B)"/><path d="M3.99 5.117c1.632-1.874 4.026-3.099 6.746-3.099 4.207 0 7.725 2.919 8.632 6.81A8.33 8.33 0 0 1 21 8.684c5.259 0 9.539 4.252 9.539 9.476 0 1.441-.326 2.811-.907 4.036 1.378-1.657 2.212-3.747 2.212-6.053 0-5.225-4.28-9.476-9.539-9.476-.544 0-1.124.036-1.632.144C19.731 2.919 16.213 0 12.005 0 8.451 0 5.404 2.09 3.99 5.117zm14.798 29.834c-.145 1.153-.435 2.198-.943 3.207.58-.685 1.052-1.441 1.415-2.27a11.31 11.31 0 0 1-.471-.937z" fill="url(#C)"/><g fill="#277833"><path d="M27.093 17.98l-5.187 3.747c-1.632 1.405-3.228 3.135-3.881 5.513l1.995.396c.145-1.801 1.741-3.171 3.083-4.72 1.378-1.585 2.466-3.459 3.99-4.936z"/><path d="M13.021 11.314c3.627 4.72 3.736 11.458 4.425 17.007.58 5.008.036 10.269-1.85 14.557-.907 1.802-3.192 3.279-3.409 3.747l7.725-.036c2.249-6.45 1.85-12.863.254-18.809-1.668-5.837-1.741-13.98-7.145-16.466z"/><path d="M8.451 26.195c2.031.613 4.244.541 6.275 1.333 1.995.793 3.917 2.522 5.295 4.576l-1.741 1.009c-.725-1.657-2.358-3.027-4.135-4.072-1.777-1.081-3.7-1.874-5.694-2.846z"/></g><path d="M44.98 19l-1.632-8.28h1.092l1.332 7.332h.336l1.62-7.272h1.224l1.62 7.272h.336l1.332-7.332h1.092L51.688 19H49.84l-1.584-7.332h.156L46.828 19H44.98zm11.201.12c-.608 0-1.088-.116-1.44-.348s-.608-.576-.768-1.032c-.152-.456-.228-1.024-.228-1.704 0-.752.104-1.36.312-1.824s.5-.8.876-1.008c.384-.216.84-.324 1.368-.324.816 0 1.428.224 1.836.672.416.44.624 1.148.624 2.124l-.048.744h-3.924c.008.592.12 1.044.336 1.356.216.304.608.456 1.176.456l.744-.012.804-.048.684-.048.024.792-.708.096-.864.072-.804.036zm-1.392-3.504h2.94c0-.704-.112-1.196-.336-1.476-.224-.288-.588-.432-1.092-.432-.328 0-.604.064-.828.192-.216.128-.384.332-.504.612s-.18.648-.18 1.104zm7.258 3.504c-.176 0-.392-.008-.648-.024l-.756-.048-.672-.06v-8.58h1.02v2.868a2.91 2.91 0 0 1 .48-.18 4.56 4.56 0 0 1 .612-.156c.216-.04.42-.06.612-.06.552 0 .988.104 1.308.312.328.2.56.524.696.972.144.448.216 1.028.216 1.74 0 .8-.088 1.436-.264 1.908a1.74 1.74 0 0 1-.876 1.008c-.416.2-.992.3-1.728.3zm-.012-.912c.528 0 .92-.08 1.176-.24s.428-.408.516-.744c.088-.344.132-.784.132-1.32 0-.496-.04-.9-.12-1.212-.072-.312-.204-.54-.396-.684-.192-.152-.452-.228-.78-.228-.184 0-.376.02-.576.06a3.88 3.88 0 0 0-.564.132l-.432.132v4.044l.564.048.48.012zm6.088.912c-.192 0-.424-.012-.696-.036l-.78-.084-.684-.108.06-.864.672.084.744.084.588.024c.312 0 .572-.028.78-.084a.84.84 0 0 0 .468-.288c.112-.136.168-.332.168-.588 0-.192-.044-.34-.132-.444-.08-.104-.232-.192-.456-.264-.216-.072-.536-.136-.96-.192-.448-.072-.824-.164-1.128-.276-.296-.112-.516-.276-.66-.492-.136-.216-.204-.524-.204-.924 0-.456.104-.812.312-1.068a1.62 1.62 0 0 1 .816-.552c.336-.112.688-.168 1.056-.168l.756.036.792.096.66.096-.024.864-.684-.084-.768-.072-.672-.036c-.232 0-.44.024-.624.072a.86.86 0 0 0-.444.264c-.104.12-.156.288-.156.504a.65.65 0 0 0 .12.408c.08.104.228.192.444.264.216.064.532.132.948.204.496.08.892.18 1.188.3.304.12.524.292.66.516.136.216.204.52.204.912 0 .464-.096.836-.288 1.116a1.57 1.57 0 0 1-.816.6c-.344.12-.764.18-1.26.18zm3.573-.12v-6h1.008v6h-1.008zm0-7.272v-1.116h1.008v1.116h-1.008zm4.544 7.404c-.416 0-.748-.064-.996-.192s-.428-.348-.54-.66c-.104-.32-.156-.768-.156-1.344v-3.06h-.828V13h.828v-1.8h1.02V13h1.836v.876h-1.836v2.772c0 .408.016.728.048.96.04.224.116.384.228.48.12.088.304.132.552.132l.3-.012.384-.024.348-.036.06.852-.408.048-.456.06-.384.024zm4.279-.012c-.608 0-1.088-.116-1.44-.348s-.608-.576-.768-1.032c-.152-.456-.228-1.024-.228-1.704 0-.752.104-1.36.312-1.824s.5-.8.876-1.008c.384-.216.84-.324 1.368-.324.816 0 1.428.224 1.836.672.416.44.624 1.148.624 2.124l-.048.744h-3.924c.008.592.12 1.044.336 1.356.216.304.608.456 1.176.456l.744-.012.804-.048.684-.048.024.792-.708.096-.864.072-.804.036zm-1.392-3.504h2.94c0-.704-.112-1.196-.336-1.476-.224-.288-.588-.432-1.092-.432-.328 0-.604.064-.828.192-.216.128-.384.332-.504.612s-.18.648-.18 1.104zm7.102 3.504c-.192 0-.424-.012-.696-.036l-.78-.084-.684-.108.06-.864.672.084.744.084.588.024c.312 0 .572-.028.78-.084a.84.84 0 0 0 .468-.288c.112-.136.168-.332.168-.588 0-.192-.044-.34-.132-.444-.08-.104-.232-.192-.456-.264-.216-.072-.536-.136-.96-.192-.448-.072-.824-.164-1.128-.276-.296-.112-.516-.276-.66-.492-.136-.216-.204-.524-.204-.924 0-.456.104-.812.312-1.068a1.62 1.62 0 0 1 .816-.552c.336-.112.688-.168 1.056-.168l.756.036.792.096.66.096-.024.864-.684-.084-.768-.072-.672-.036c-.232 0-.44.024-.624.072a.86.86 0 0 0-.444.264c-.104.12-.156.288-.156.504a.65.65 0 0 0 .12.408c.08.104.228.192.444.264.216.064.532.132.948.204.496.08.892.18 1.188.3.304.12.524.292.66.516.136.216.204.52.204.912 0 .464-.096.836-.288 1.116a1.57 1.57 0 0 1-.816.6c-.344.12-.764.18-1.26.18zm7.998 0c-.192 0-.424-.012-.696-.036l-.78-.084-.684-.108.06-.864.672.084.744.084.588.024c.312 0 .572-.028.78-.084a.84.84 0 0 0 .468-.288c.112-.136.168-.332.168-.588 0-.192-.044-.34-.132-.444-.08-.104-.232-.192-.456-.264-.216-.072-.536-.136-.96-.192-.448-.072-.824-.164-1.128-.276-.296-.112-.516-.276-.66-.492-.136-.216-.204-.524-.204-.924 0-.456.104-.812.312-1.068a1.62 1.62 0 0 1 .816-.552c.336-.112.688-.168 1.056-.168l.756.036.792.096.66.096-.024.864-.684-.084-.768-.072-.672-.036c-.232 0-.44.024-.624.072a.86.86 0 0 0-.444.264c-.104.12-.156.288-.156.504a.65.65 0 0 0 .12.408c.08.104.228.192.444.264.216.064.532.132.948.204.496.08.892.18 1.188.3.304.12.524.292.66.516.136.216.204.52.204.912 0 .464-.096.836-.288 1.116a1.57 1.57 0 0 1-.816.6c-.344.12-.764.18-1.26.18zm5.41 0c-.512 0-.908-.104-1.188-.312-.272-.208-.46-.532-.564-.972-.096-.448-.144-1.016-.144-1.704V13h1.008v3.12c0 .512.024.92.072 1.224.056.304.168.524.336.66.176.136.432.204.768.204a3.07 3.07 0 0 0 .924-.132c.28-.096.504-.192.672-.288V13h1.02v6h-1.02v-.408c-.256.144-.532.268-.828.372s-.648.156-1.056.156zm4.454 2.52V13h1.008v.42c.128-.08.288-.16.48-.24.192-.088.396-.16.612-.216a2.67 2.67 0 0 1 .648-.084c.52 0 .94.108 1.26.324.32.208.556.54.708.996.16.448.24 1.024.24 1.728 0 .784-.092 1.412-.276 1.884-.176.464-.46.8-.852 1.008-.384.2-.884.3-1.5.3a6 6 0 0 1-.744-.048l-.576-.084v2.652h-1.008zm2.244-3.408c.424 0 .756-.076.996-.228.24-.16.408-.408.504-.744.104-.344.156-.788.156-1.332 0-.784-.116-1.336-.348-1.656-.232-.328-.556-.492-.972-.492-.184 0-.376.024-.576.072a5.56 5.56 0 0 0-.552.168 2.59 2.59 0 0 0-.444.204v3.9l.54.072.696.036zm4 3.408V13h1.008v.42c.128-.08.288-.16.48-.24.192-.088.396-.16.612-.216a2.67 2.67 0 0 1 .648-.084c.52 0 .94.108 1.26.324.32.208.556.54.708.996.16.448.24 1.024.24 1.728 0 .784-.092 1.412-.276 1.884-.176.464-.46.8-.852 1.008-.384.2-.884.3-1.5.3a6 6 0 0 1-.744-.048l-.576-.084v2.652h-1.008zm2.244-3.408c.424 0 .756-.076.996-.228.24-.16.408-.408.504-.744.104-.344.156-.788.156-1.332 0-.784-.116-1.336-.348-1.656-.232-.328-.556-.492-.972-.492-.184 0-.376.024-.576.072a5.56 5.56 0 0 0-.552.168 2.59 2.59 0 0 0-.444.204v3.9l.54.072.696.036zm6.339.888c-.672 0-1.2-.116-1.584-.348-.376-.232-.64-.58-.792-1.044-.152-.472-.228-1.072-.228-1.8 0-.688.084-1.256.252-1.704.168-.456.444-.792.828-1.008.384-.224.892-.336 1.524-.336.64 0 1.152.112 1.536.336.384.216.66.552.828 1.008.168.448.252 1.016.252 1.704 0 .728-.08 1.328-.24 1.8-.152.464-.416.812-.792 1.044s-.904.348-1.584.348zm0-.876c.448 0 .784-.076 1.008-.228.224-.16.372-.412.444-.756s.108-.788.108-1.332c0-.536-.048-.964-.144-1.284-.088-.32-.244-.548-.468-.684s-.54-.204-.948-.204c-.4 0-.716.068-.948.204-.224.136-.384.364-.48.684-.088.32-.132.748-.132 1.284 0 .544.036.988.108 1.332s.22.596.444.756c.224.152.56.228 1.008.228zm3.915.756v-6h1.008v.792c.152-.104.34-.216.564-.336.232-.128.484-.248.756-.36s.544-.188.816-.228v1.02c-.264.056-.532.128-.804.216s-.524.184-.756.288l-.576.276V19h-1.008zm6.032.132c-.416 0-.748-.064-.996-.192s-.428-.348-.54-.66c-.104-.32-.156-.768-.156-1.344v-3.06h-.828V13h.828v-1.8h1.02V13h1.836v.876h-1.836v2.772c0 .408.016.728.048.96.04.224.116.384.228.48.12.088.304.132.552.132l.3-.012.384-.024.348-.036.06.852-.408.048-.456.06-.384.024zm2.119-.132v-6h1.008v6h-1.008zm0-7.272v-1.116h1.008v1.116h-1.008zM133.546 19v-6h1.008v.408c.136-.08.304-.16.504-.24a5.56 5.56 0 0 1 .648-.204c.232-.056.452-.084.66-.084.416 0 .756.056 1.02.168.272.104.48.276.624.516.152.232.256.536.312.912.064.368.096.82.096 1.356V19h-1.02v-3.132c0-.504-.032-.908-.096-1.212-.056-.304-.172-.524-.348-.66-.168-.136-.432-.204-.792-.204-.192 0-.392.024-.6.072a3.87 3.87 0 0 0-.564.156 3.49 3.49 0 0 0-.444.192V19h-1.008zm8.713 2.808c-.624 0-1.128-.052-1.512-.156s-.668-.288-.852-.552c-.176-.264-.264-.624-.264-1.08 0-.232.036-.432.108-.6.072-.16.176-.308.312-.444.136-.144.308-.292.516-.444-.104-.08-.188-.192-.252-.336a1.45 1.45 0 0 1-.084-.504c0-.056.02-.14.06-.252l.168-.348.192-.348a1.82 1.82 0 0 1-.468-.324 1.66 1.66 0 0 1-.336-.576c-.088-.24-.132-.544-.132-.912 0-.496.092-.892.276-1.188.192-.304.46-.524.804-.66s.744-.204 1.2-.204c.216 0 .444.016.684.048l.564.096 1.812-.036v.828l-1.104-.024c.112.112.204.26.276.444.072.176.108.408.108.696 0 .528-.088.94-.264 1.236s-.44.504-.792.624c-.344.12-.78.18-1.308.18a5.68 5.68 0 0 1-.288-.012l-.288-.036-.132.372c-.048.136-.072.228-.072.276 0 .12.012.212.036.276.032.064.096.116.192.156s.24.068.432.084l.792.012c.568 0 1.024.048 1.368.144s.588.272.732.528c.152.248.228.612.228 1.092 0 .688-.24 1.184-.72 1.488-.472.304-1.136.456-1.992.456zm0-.84c.584 0 1.012-.084 1.284-.252.272-.16.408-.424.408-.792 0-.28-.048-.488-.144-.624-.088-.128-.236-.216-.444-.264-.208-.04-.488-.06-.84-.06h-.312l-.384-.012-.36-.024-.216-.012c-.152.112-.276.216-.372.312a.87.87 0 0 0-.204.3 1.32 1.32 0 0 0-.048.384c0 .248.044.448.132.6.096.152.264.264.504.336s.572.108.996.108zm-.264-4.8c.48 0 .82-.092 1.02-.276.2-.192.3-.512.3-.96s-.1-.768-.3-.96-.54-.288-1.02-.288c-.448 0-.772.096-.972.288-.192.192-.288.512-.288.96s.096.768.288.96c.2.184.524.276.972.276z" fill="#004343"/><path d="M46.9 35.165c-.86 0-1.535-.13-2.025-.39-.48-.27-.82-.7-1.02-1.29-.19-.59-.285-1.365-.285-2.325 0-.95.11-1.705.33-2.265.22-.57.575-.975 1.065-1.215.5-.25 1.15-.375 1.95-.375a7.01 7.01 0 0 1 .735.045l.84.12.735.12-.075 1.605-.645-.045-.705-.045-.54-.03c-.43 0-.77.07-1.02.21-.24.13-.41.35-.51.66-.09.3-.135.705-.135 1.215 0 .55.045.99.135 1.32s.25.565.48.705c.24.14.59.21 1.05.21l.555-.015.705-.06.66-.045.06 1.605-.72.12-.855.12-.765.045zM50.564 35V24.395h1.995V35h-1.995zm3.675 0v-7.53h1.995V35h-1.995zm0-8.73v-1.71h2.01v1.71h-2.01zM57.871 35v-7.53h1.995v.48c.15-.1.34-.195.57-.285a5.57 5.57 0 0 1 .72-.255c.26-.07.51-.105.75-.105.46 0 .835.065 1.125.195a1.76 1.76 0 0 1 .72.54c.18-.11.405-.22.675-.33a6.57 6.57 0 0 1 .885-.285 3.83 3.83 0 0 1 .93-.12c.55 0 1 .075 1.35.225.36.14.64.365.84.675.2.3.34.69.42 1.17.08.47.12 1.04.12 1.71V35h-1.995v-3.735c0-.52-.03-.94-.09-1.26-.05-.33-.16-.57-.33-.72-.16-.15-.405-.225-.735-.225a2.91 2.91 0 0 0-.57.06c-.2.03-.385.075-.555.135l-.39.165c.05.21.085.48.105.81l.045 1.035V35h-1.995v-3.705c0-.53-.03-.96-.09-1.29-.05-.33-.16-.57-.33-.72s-.415-.225-.735-.225a2.69 2.69 0 0 0-.555.06c-.18.03-.35.075-.51.135l-.375.165V35h-1.995zm14.621.165c-.78 0-1.37-.195-1.77-.585-.39-.4-.585-1-.585-1.8 0-.56.1-.995.3-1.305.2-.32.495-.55.885-.69.4-.15.885-.24 1.455-.27l1.83-.165v-.45c0-.36-.09-.61-.27-.75-.18-.15-.445-.225-.795-.225l-.975.03-1.08.075-.915.09-.06-1.41.93-.18 1.155-.165 1.11-.06c.64 0 1.175.08 1.605.24a1.84 1.84 0 0 1 .975.795c.22.36.33.85.33 1.47v3.435a.45.45 0 0 0 .225.33 1.49 1.49 0 0 0 .45.15l-.045 1.38h-.48c-.15.01-.295.01-.435 0a2.11 2.11 0 0 1-.375-.03 1.76 1.76 0 0 1-.6-.18 1.79 1.79 0 0 1-.39-.285c-.16.07-.375.15-.645.24s-.565.165-.885.225a4.96 4.96 0 0 1-.945.09zm.48-1.485a3.21 3.21 0 0 0 .6-.06l.585-.135.45-.165v-1.725l-1.53.135c-.33.03-.57.13-.72.3-.14.16-.21.39-.21.69s.065.535.195.705c.14.17.35.255.63.255zm7.929 1.5c-.55 0-.995-.08-1.335-.24s-.585-.435-.735-.825c-.14-.4-.21-.955-.21-1.665v-3.315h-.885V27.47h.885v-1.995h1.995v1.995h1.92v1.665h-1.92v2.79l.045.915c.04.22.12.375.24.465s.305.135.555.135l.315-.015.42-.03.345-.03.06 1.605-.555.09-.63.075c-.2.03-.37.045-.51.045zm5.766-.015c-.83 0-1.49-.14-1.98-.42-.48-.28-.825-.705-1.035-1.275s-.315-1.285-.315-2.145c0-.93.13-1.69.39-2.28.27-.59.66-1.025 1.17-1.305.51-.29 1.14-.435 1.89-.435 1.11 0 1.945.28 2.505.84.57.56.855 1.445.855 2.655l-.09 1.11h-4.71c.01.56.125.98.345 1.26s.6.42 1.14.42l1.02-.015 1.095-.06.945-.06.045 1.395-.945.135-1.185.12-1.14.06zm-1.32-4.53h2.805c0-.68-.11-1.155-.33-1.425-.21-.27-.555-.405-1.035-.405-.32 0-.585.06-.795.18s-.37.315-.48.585-.165.625-.165 1.065zm9.333 7.53V27.47h1.98l.015.48c.14-.09.315-.185.525-.285.22-.1.455-.185.705-.255a2.72 2.72 0 0 1 .735-.105c.67 0 1.21.145 1.62.435.42.28.725.71.915 1.29.2.57.3 1.295.3 2.175 0 .94-.11 1.7-.33 2.28s-.575 1.005-1.065 1.275c-.48.27-1.115.405-1.905.405a5.95 5.95 0 0 1-.81-.06l-.69-.12v3.18h-1.995zm3.18-4.665c.4 0 .715-.085.945-.255s.39-.425.48-.765c.1-.35.15-.79.15-1.32 0-.82-.115-1.385-.345-1.695-.22-.32-.54-.48-.96-.48-.16 0-.33.02-.51.06s-.355.09-.525.15-.31.12-.42.18v4.02l.51.06c.23.03.455.045.675.045zm4.949 1.5v-7.53h1.995v.885c.17-.13.38-.265.63-.405a6.12 6.12 0 0 1 .81-.405c.3-.13.585-.215.855-.255v1.935c-.26.04-.535.11-.825.21l-.825.3-.645.3V35h-1.995zm8.454.165c-.85 0-1.535-.14-2.055-.42-.51-.28-.88-.71-1.11-1.29-.23-.59-.345-1.35-.345-2.28 0-.9.12-1.63.36-2.19.24-.57.62-.99 1.14-1.26.52-.28 1.19-.42 2.01-.42.83 0 1.5.14 2.01.42.52.27.9.69 1.14 1.26.25.56.375 1.29.375 2.19 0 .93-.115 1.69-.345 2.28-.23.58-.605 1.01-1.125 1.29-.51.28-1.195.42-2.055.42zm0-1.65c.42 0 .735-.075.945-.225.21-.16.35-.41.42-.75.08-.35.12-.805.12-1.365 0-.55-.045-.985-.135-1.305-.09-.33-.24-.565-.45-.705s-.51-.21-.9-.21c-.38 0-.68.07-.9.21-.21.14-.36.375-.45.705-.09.32-.135.755-.135 1.305 0 .56.035 1.015.105 1.365.08.34.225.59.435.75.21.15.525.225.945.225zm3.945 4.815l-.705-1.53.84-.51c.22-.14.385-.29.495-.45.11-.15.185-.33.225-.54s.06-.48.06-.81v-7.02h2.01v6.99c0 .57-.045 1.045-.135 1.425-.08.39-.23.72-.45.99-.21.28-.505.53-.885.75s-.865.455-1.455.705zm.915-12.075V24.56h2.01v1.695h-2.01zm6.677 8.91c-.83 0-1.49-.14-1.98-.42-.48-.28-.825-.705-1.035-1.275s-.315-1.285-.315-2.145c0-.93.13-1.69.39-2.28.27-.59.66-1.025 1.17-1.305.51-.29 1.14-.435 1.89-.435 1.11 0 1.945.28 2.505.84.57.56.855 1.445.855 2.655l-.09 1.11h-4.71c.01.56.125.98.345 1.26s.6.42 1.14.42l1.02-.015 1.095-.06.945-.06.045 1.395-.945.135-1.185.12-1.14.06zm-1.32-4.53h2.805c0-.68-.11-1.155-.33-1.425-.21-.27-.555-.405-1.035-.405-.32 0-.585.06-.795.18s-.37.315-.48.585-.165.625-.165 1.065zm9.172 4.53c-.86 0-1.535-.13-2.025-.39-.48-.27-.82-.7-1.02-1.29-.19-.59-.285-1.365-.285-2.325 0-.95.11-1.705.33-2.265.22-.57.575-.975 1.065-1.215.5-.25 1.15-.375 1.95-.375a7.01 7.01 0 0 1 .735.045l.84.12.735.12-.075 1.605-.645-.045-.705-.045-.54-.03c-.43 0-.77.07-1.02.21-.24.13-.41.35-.51.66-.09.3-.135.705-.135 1.215 0 .55.045.99.135 1.32s.25.565.48.705c.24.14.59.21 1.05.21l.555-.015.705-.06.66-.045.06 1.605-.72.12-.855.12-.765.045zm6.244.015c-.55 0-.995-.08-1.335-.24s-.585-.435-.735-.825c-.14-.4-.21-.955-.21-1.665v-3.315h-.885V27.47h.885v-1.995h1.995v1.995h1.92v1.665h-1.92v2.79l.045.915c.04.22.12.375.24.465s.305.135.555.135l.315-.015.42-.03.345-.03.06 1.605-.555.09-.63.075c-.2.03-.37.045-.51.045zm5.435-.015a10.21 10.21 0 0 1-1.065-.06l-1.05-.12-.825-.15.06-1.485.87.105.96.105.78.03c.3 0 .545-.025.735-.075.2-.05.35-.13.45-.24.1-.12.15-.29.15-.51 0-.17-.045-.3-.135-.39-.08-.09-.24-.165-.48-.225-.23-.07-.57-.14-1.02-.21-.56-.08-1.025-.195-1.395-.345-.36-.15-.625-.37-.795-.66-.17-.3-.255-.705-.255-1.215 0-.62.135-1.105.405-1.455a2.12 2.12 0 0 1 1.08-.735c.45-.15.94-.225 1.47-.225a10.05 10.05 0 0 1 1.08.06l1.05.12.825.15-.06 1.515-.87-.105-.99-.09-.81-.03c-.23 0-.435.025-.615.075-.18.04-.32.11-.42.21-.09.1-.135.25-.135.45a.5.5 0 0 0 .12.345c.08.09.23.17.45.24.23.06.56.12.99.18.62.09 1.115.215 1.485.375s.635.39.795.69c.17.3.255.705.255 1.215 0 .6-.12 1.08-.36 1.44s-.59.62-1.05.78-1.02.24-1.68.24z" fill="#45ab21"/><defs><radialGradient id="A" cx="0" cy="0" r="1" gradientUnits="userSpaceOnUse" gradientTransform="translate(15.8511 45.9215) rotate(180) scale(14.9652 1.93987)"><stop offset=".292" stop-color="#000505"/><stop offset="1" stop-color="#004343"/></radialGradient><linearGradient id="B" x1="0" y1="33.355" x2="19.014" y2="33.355" gradientUnits="userSpaceOnUse"><stop offset=".067" stop-color="#69a82f"/><stop offset=".365" stop-color="#dae49b"/><stop offset=".697" stop-color="#69a82f"/></linearGradient><linearGradient id="C" x1="3.994" y1="19.074" x2="31.822" y2="19.074" gradientUnits="userSpaceOnUse"><stop offset=".062" stop-color="#69a82f"/><stop offset=".182" stop-color="#9dbf55"/><stop offset=".293" stop-color="#c0d37b"/><stop offset=".38" stop-color="#d3e092"/><stop offset=".433" stop-color="#dae49b"/><stop offset=".565" stop-color="#c7d883"/><stop offset=".846" stop-color="#90b84a"/><stop offset="1" stop-color="#69a82f"/></linearGradient><path id="D" d="M2.756 24.898C1.052 26.699 0 29.113 0 31.78c0 5.549 4.497 10.017 10.083 10.017 3.881 0 7.254-2.198 8.922-5.405-1.85 1.91-4.425 3.135-7.326 3.135-5.549 0-10.047-4.468-10.047-9.981 0-1.694.399-3.243 1.124-4.648z"/></defs></svg>