<svg width="1906" height="527" viewBox="0 0 1906 527" fill="none" xmlns="http://www.w3.org/2000/svg">
<g clip-path="url(#clip0_856_632)">
<path d="M293.785 242.122C275.892 249.302 262.473 266.057 258 273.537V563H1629C1624.53 485.585 1607.98 327.166 1577.56 312.805C1547.14 298.444 1524.63 288.122 1517.17 284.756C1496.67 300.463 1444.93 334.795 1401.99 346.463C1348.31 361.049 1350.55 346.463 1334.89 361.049C1322.37 372.717 1308.8 386.106 1303.58 391.341L1282.34 380.122C1277.86 387.602 1262.88 401.663 1238.72 398.073C1214.57 394.483 1181.69 379.374 1168.27 372.268C1155.23 368.528 1124.66 361.049 1106.77 361.049C1084.4 361.049 1069.86 345.341 1057.56 346.463C1045.26 347.585 1022.9 362.171 999.414 361.049C975.93 359.927 956.919 325.146 915.543 318.415C874.167 311.683 864.103 325.146 830.555 318.415C797.007 311.683 742.211 267.927 729.91 254.463C720.069 243.693 688.534 249.976 673.997 254.463C673.997 254.463 665.61 257.268 655.545 246.61C645.481 235.951 637.094 254.463 637.094 254.463C637.094 254.463 600.75 211.829 586.772 207.341C572.793 202.854 522.136 221.254 509.611 227.537C493.955 235.39 473.826 228.659 449.224 214.073C424.622 199.488 421.268 195 414.558 195C407.848 195 400.02 210.707 378.773 219.683C357.526 228.659 316.15 233.146 293.785 242.122Z" fill="#405A79"/>
<path d="M39.9973 269.114C23.1984 265.915 6.33291 261.784 0 260.118V530H1905.87V293.103C1906.37 291.104 1905.67 286.506 1898.87 284.107C1890.37 281.109 1879.87 284.607 1864.88 277.61C1849.88 270.613 1851.88 267.615 1840.88 267.615H1808.38C1792.88 267.615 1783.88 257.619 1766.88 256.12C1749.88 254.62 1742.38 267.615 1732.38 272.612C1722.38 277.61 1727.38 280.609 1723.38 277.61C1719.38 274.612 1717.38 277.61 1709.89 277.61C1702.39 277.61 1699.39 269.614 1690.89 267.615C1682.39 265.615 1670.39 283.108 1663.89 277.61C1657.39 272.113 1651.39 275.611 1641.89 277.61C1632.39 279.609 1630.89 292.104 1628.39 293.103C1625.89 294.103 1626.89 286.606 1610.39 287.106C1593.89 287.606 1553.9 315.094 1547.9 321.591C1541.9 328.088 1501.9 350.578 1478.4 359.075C1454.9 367.571 1419.9 393.06 1409.91 393.06H1397.41L1388.41 406.054V397.558L1376.91 412.052C1374.41 412.551 1367.61 414.051 1360.41 416.05C1351.41 418.549 1336.41 432.043 1333.91 432.043C1331.41 432.043 1314.41 432.043 1298.91 443.538C1286.51 452.734 1254.75 439.706 1240.42 432.043C1227.75 429.877 1199.92 423.646 1189.92 416.05C1179.92 408.453 1169.75 407.887 1165.92 408.553C1163.26 411.052 1151.92 414.051 1127.92 406.054C1103.93 398.058 1118.92 397.558 1106.93 393.06C1098.93 393.06 1102.93 401.056 1094.93 401.056C1084.93 401.056 1065.93 390.561 1066.93 397.558C1067.73 403.155 1055.26 405.554 1048.93 406.054C1036.6 408.72 1011.13 412.451 1007.93 406.054C1003.93 398.058 1029.43 397.678 1002.93 393.06C976.435 388.442 988.934 398.391 989.934 401.056L980.934 393.06L965.935 401.056V393.06C963.269 389.728 953.336 385.063 934.937 393.06C911.939 403.055 889.94 378.066 843.943 374.068C797.946 370.07 790.947 365.072 755.949 356.076C727.951 348.879 693.62 349.079 679.954 350.079L655.956 333.086L645.957 339.083C641.624 341.416 627.358 341.682 604.959 324.09C576.961 302.1 573.961 320.092 533.964 324.09C493.967 328.088 482.968 312.095 449.97 292.104C416.972 272.113 384.974 281.109 357.976 281.109C330.978 281.109 320.978 303.099 262.982 276.111C204.986 249.123 208.986 260.118 187.987 269.114C166.989 278.11 156.989 269.114 134.991 269.114C112.992 269.114 94.9936 284.107 82.9944 281.109C70.9952 278.11 60.9959 273.112 39.9973 269.114Z" fill="#232930"/>
<path d="M1200.94 318C1202.14 320 1202.44 321.5 1202.44 322C1202.11 322.333 1201.04 323 1199.44 323C1197.44 323 1196.94 323.5 1194.94 324C1192.94 324.5 1194.44 326 1194.94 328C1195.44 330 1194.94 330 1194.94 332C1194.94 334 1197.94 335 1199.44 336.5C1200.94 338 1199.94 339 1197.94 340.5C1195.94 342 1196.44 342 1194.44 342.5C1192.44 343 1191.94 343 1190.44 344C1188.94 345 1187.94 344.5 1185.94 345C1183.94 345.5 1182.94 345 1181.44 344.5C1179.94 344 1181.44 343 1181.44 341.5C1181.44 340 1180.44 340 1177.94 341.5C1176.34 342.3 1175.61 341.833 1175.44 341.5C1175.11 341.5 1174.24 341.8 1173.44 343C1172.64 344.2 1173.11 347.5 1173.44 349L1175.44 350.5L1177.94 351C1178.11 351.5 1179.04 352.5 1181.44 352.5C1184.44 352.5 1192.44 352 1194.94 351C1197.44 350 1197.94 351 1199.44 351C1200.94 351 1201.44 351.5 1202.44 351C1203.44 350.5 1203.94 349.5 1207.44 349.5C1208.94 349.5 1209.44 351.5 1209.44 352.5C1209.44 353.5 1208.44 355.5 1207.44 356.5C1206.44 357.5 1206.94 358.5 1202.44 362C1197.94 365.5 1190.94 378 1189.94 380C1188.94 382 1190.94 388.5 1193.44 393.5C1195.44 397.5 1197.94 411.833 1198.94 418.5C1198.44 418.5 1197.24 418.6 1196.44 419C1195.44 419.5 1196.94 423 1196.44 426C1195.94 429 1193.94 428.5 1193.44 429C1193.04 429.4 1189.61 432.5 1187.94 434L1209.44 437L1209.94 430.5C1208.61 429.5 1206.14 425.5 1206.94 417.5C1207.94 407.5 1205.44 392 1203.94 390C1202.44 388 1201.44 386.5 1201.44 384.5C1201.44 382.5 1204.94 378.5 1206.94 378.5C1208.94 378.5 1210 376 1212 378.5C1214 381 1213.94 391 1213.44 393.5C1212.94 396 1215.44 398 1218.44 401.5C1221.44 405 1222.44 409.5 1223.94 412.5C1225.44 415.5 1227.44 417.5 1227.94 419C1228.44 420.5 1226.44 425 1225.44 426.5C1224.64 427.7 1226.78 432.333 1227.94 434.5L1235.94 440V420.5C1235.94 409.5 1228.44 398 1226.44 395.5C1224.44 393 1224.94 391.5 1224.94 390C1224.94 388.5 1227.44 382.5 1229.44 378.5C1231.04 375.3 1233.11 365.5 1233.94 361C1238.44 363.5 1246.44 363 1248.94 363C1251.44 363 1250.94 361 1251.44 360.5C1251.94 360 1253.44 360.5 1254.94 360C1256.44 359.5 1255.94 358.5 1256.94 358.5C1257.94 358.5 1258.94 362 1260.94 363C1262.94 364 1266.44 365.5 1268.44 368C1270.44 370.5 1269.44 368 1269.94 368C1270.44 368 1268.94 366.5 1268.44 365.5C1267.94 364.5 1265.94 364 1264.44 364C1262.94 364 1261.94 362.5 1259.94 361C1257.94 359.5 1258.44 357 1259.94 354C1261.44 351 1260.94 348 1260.94 345C1260.94 342 1259.94 336 1259.94 333.5C1259.94 331 1261.44 331 1261.94 330C1262.44 329 1260.44 327.5 1258.94 326C1257.74 324.8 1257.11 322.833 1256.94 322C1256.78 321 1256.14 318.6 1254.94 317C1253.44 315 1254.44 313 1254.94 310.5C1255.44 308 1253.94 307.5 1252.94 307C1251.94 306.5 1250.94 305 1250.94 303.5V300.5C1250.94 299.5 1252.44 299.5 1250.94 294C1249.94 289.5 1244.94 288 1241.94 285.5C1239.54 283.5 1237.94 284 1237.44 284.5C1236.94 284.667 1235.94 284.7 1235.94 283.5C1235.94 282.3 1234.61 280.667 1233.94 280C1233.28 280 1232.14 280.1 1232.94 280.5C1233.74 280.9 1233.94 283 1233.94 284C1233.61 284.167 1232.44 284.7 1230.44 285.5C1227.94 286.5 1225.94 292.5 1224.94 294C1223.94 295.5 1222.94 295 1221.44 295C1219.94 295 1220.94 293.5 1218.94 291.5C1216.94 289.5 1216.94 289.5 1215.94 290.5C1214.94 291.5 1213.44 290.5 1212.44 289.5C1211.44 288.5 1211.44 289 1210.44 289C1209.44 289 1209.44 292 1207.94 292.5C1206.44 293 1206.94 289 1206.94 287C1206.94 285 1203.44 282.5 1202.44 281.5C1201.44 280.5 1198.94 280 1196.94 280C1194.94 280 1192.94 280.5 1190.94 282.5C1188.94 284.5 1186.44 287.5 1186.44 289C1186.44 290.5 1188.94 289 1188.94 290.5C1188.94 292 1189.94 293 1190.94 295C1191.94 297 1190.94 297.5 1190.94 298.5C1190.94 299.3 1191.61 299.5 1191.94 299.5C1192.28 299.333 1193.24 299.1 1194.44 299.5C1195.94 300 1196.44 302.5 1196.44 303.5C1196.44 304.5 1202.44 304 1202.44 305C1202.44 305.8 1197.11 309 1194.44 310.5C1195.44 313.5 1198.44 313 1198.94 314C1199.44 315 1199.44 315.5 1200.94 318Z" fill="#232930"/>
<path d="M1176 341L1178 330.5V325.5H1182.5L1178 343L1176 349.5L1159 446.5H1157L1176 341Z" fill="#232930"/>
<path d="M1024.68 337.954C1025.44 336.431 1027.08 332.473 1027.53 328.818C1027.99 325.164 1028.86 321.967 1029.25 320.825C1029.63 319.302 1029.82 315.8 1027.53 313.973C1024.68 311.689 1025.82 313.374 1021.82 311.661C1013.26 309.948 1016.11 310.519 1011.55 308.235C1010.1 307.513 1007.55 304.81 1006.41 303.668C1005.5 302.765 1003.16 301.756 1000.82 301.189L980.142 423H979C985.722 383.413 999.061 305.283 1000.07 301.023C999.703 300.949 999.338 300.888 998.984 300.841C994.416 300.242 996.7 292.848 998.984 291.135C1001.27 289.421 1001.27 290.754 1002.41 291.135L1004.69 295.132C1005.84 295.893 1008.8 297.415 1011.55 297.415C1014.97 297.415 1017.83 299.699 1019.54 297.415C1021.25 295.132 1023.54 293.419 1024.68 292.848C1025.82 292.277 1024.68 287.138 1023.54 285.425C1022.39 283.712 1021.25 280.857 1022.39 278.003C1023.54 275.148 1024.68 274.006 1023.54 273.435C1022.39 272.864 1022.96 272.864 1019.54 272.864C1016.11 272.864 1018.4 271.151 1017.25 268.867C1016.34 267.04 1016.68 266.612 1014.97 266.583C1013.26 266.555 1014.97 262.586 1014.97 262.586C1014.21 260.112 1013.14 254.593 1014.97 252.309C1017.25 249.454 1020.11 247.741 1022.39 247.741C1024.68 247.741 1028.1 246.028 1032.67 250.596C1033.43 250.786 1035.53 250.824 1037.81 249.454C1040.66 247.741 1042.38 246.028 1046.95 246.028C1051.51 246.028 1058.36 245.457 1061.22 249.454C1064.07 253.451 1065.79 257.448 1065.79 262.586C1067.12 262.206 1070.35 262.016 1072.64 264.299C1075.49 267.154 1079.49 273.435 1081.2 276.29C1082.92 279.145 1085.77 282.57 1085.77 287.709C1085.77 292.848 1085.77 295.703 1080.06 298.557C1080.44 299.319 1081.2 301.526 1081.2 304.267C1081.2 307.693 1081.77 308.835 1080.63 309.406C1079.49 309.977 1078.92 313.403 1079.49 314.545C1080.06 315.687 1078.92 321.967 1074.92 324.251C1070.93 326.535 1067.5 328.248 1061.22 327.106V342.522C1061.22 345.377 1061.22 356.796 1060.08 359.651C1059.16 361.935 1059.7 364.028 1060.08 364.79C1060.46 365.361 1061.22 366.503 1061.22 367.645C1061.22 368.786 1062.93 372.184 1064.07 372.184C1065.22 372.184 1070.35 373.326 1074.35 376.181C1077.64 378.527 1083.49 385.316 1085.2 386.458C1086.91 387.6 1089.77 389.912 1092.05 389.912H1096.62C1100.05 392.168 1090.91 405.871 1094.91 404.757C1095.68 404.541 1096.62 411.609 1093.76 412.18C1090.91 412.751 1088.05 412.18 1085.2 412.18C1082.35 412.18 1079.49 412.18 1080.06 408.754C1080.63 405.328 1084.63 406.47 1085.77 405.899C1086.91 405.328 1087.48 403.616 1086.34 400.761C1085.43 398.477 1083.68 396.383 1082.92 395.622C1082.92 394.48 1082.23 391.968 1079.49 391.054C1076.06 389.912 1065.22 381.919 1060.08 379.064C1054.94 376.209 1051.51 375.638 1049.8 371.07C1048.43 367.416 1046.95 364.599 1046.37 363.648L1045.23 361.364C1045.61 359.651 1045.46 355.997 1044.09 355.083C1042.38 353.941 1039.52 353.941 1038.95 352.228C1036.48 354.893 1030.84 360.793 1028.1 363.077C1024.68 365.932 1025.82 371.613 1026.96 374.468C1028.1 377.323 1025.82 389.912 1029.25 397.906C1030.01 399.048 1031.76 401.56 1032.67 402.474C1033.58 403.387 1033.81 405.899 1033.81 407.041C1030.77 408.374 1023.99 411.038 1021.25 411.038H1011.55C1010.78 410.087 1009.72 407.955 1011.55 407.041C1013.83 405.899 1015.54 405.899 1018.4 404.757C1021.25 403.616 1021.25 403.616 1021.82 401.332C1022.28 399.505 1022.01 396.764 1021.82 395.622C1020.49 390.674 1017.71 379.977 1017.25 376.78C1016.68 372.783 1014.97 365.361 1016.11 361.364C1017.25 357.367 1021.82 340.238 1024.68 337.954Z" fill="#232930"/>
<path d="M1072.5 331C1072.1 330.2 1072 325.333 1072 323L1072.5 320C1072.83 319.833 1073.4 319.9 1073 321.5C1072.5 323.5 1073 329.5 1073.5 330.5C1073.9 331.3 1073.5 336.5 1073 338C1072.5 339.5 1072 338.5 1072 338.5C1072.33 336.333 1072.9 331.8 1072.5 331Z" fill="#232930"/>
<path d="M1066.5 321.062C1066.1 320.262 1066 315.396 1066 313.062L1066.5 310.062C1066.83 309.896 1067.4 309.962 1067 311.562C1066.5 313.562 1067 319.562 1067.5 320.562C1067.9 321.362 1067.5 326.562 1067 328.062C1066.5 329.562 1066 328.562 1066 328.562C1066.33 326.396 1066.9 321.862 1066.5 321.062Z" fill="#232930"/>
<path d="M1085.5 292.062C1085.1 291.262 1085 286.396 1085 284.062L1085.5 281.062C1085.83 280.896 1086.4 280.962 1086 282.562C1085.5 284.562 1086 290.562 1086.5 291.562C1086.9 292.362 1086.5 297.562 1086 299.062C1085.5 300.562 1085 299.562 1085 299.562C1085.33 297.396 1085.9 292.862 1085.5 292.062Z" fill="#232930"/>
<path d="M1003.55 285.113L1001.84 293.107L1002.41 295.39L1005.84 285.113L1004.69 284.542L1003.55 285.113Z" fill="#232930"/>
</g>
<defs>
<clipPath id="clip0_856_632">
<rect width="1906" height="527" fill="white"/>
</clipPath>
</defs>
</svg>
